<?xml version="1.0" encoding="utf-8"?>
<!-- Generator: Adobe Illustrator 25.2.0, SVG Export Plug-In . SVG Version: 6.00 Build 0)  -->
<svg version="1.1" id="Layer_1" xmlns="http://www.w3.org/2000/svg" xmlns:xlink="http://www.w3.org/1999/xlink" x="0px" y="0px"
	 viewBox="0 0 848 512" style="enable-background:new 0 0 848 512;" xml:space="preserve">
<style type="text/css">
	.st0{fill:none;stroke:#000000;stroke-width:25;stroke-linecap:round;stroke-linejoin:round;stroke-miterlimit:10;}
	.st1{fill:none;stroke:#000000;stroke-width:26;stroke-linecap:round;stroke-linejoin:round;stroke-miterlimit:10;}
</style>
<g>
	<path class="st0" d="M534.4,280.6c0-61.9-50.1-112-112-112s-112,50.1-112,112c0,47.8,29.9,88.5,72,104.6v45.9
		c0,13.2,10.7,23.8,23.8,23.8h32.3c13.2,0,23.8-10.7,23.8-23.8v-45.9C504.5,369.1,534.4,328.4,534.4,280.6z"/>
	<g>
		<line class="st1" x1="267.5" y1="275.7" x2="197.8" y2="275.7"/>
		<line class="st1" x1="289.2" y1="350.3" x2="228.8" y2="384"/>
		<line class="st1" x1="557.4" y1="347.3" x2="617.8" y2="381"/>
		<line class="st1" x1="577.3" y1="272.2" x2="647" y2="272.2"/>
		<line class="st1" x1="555.6" y1="197.7" x2="616" y2="164"/>
		<line class="st1" x1="498.3" y1="143.5" x2="533.1" y2="85.2"/>
		<line class="st1" x1="420.6" y1="124.4" x2="420.6" y2="57"/>
		<line class="st1" x1="343.4" y1="145.3" x2="308.5" y2="86.9"/>
		<line class="st1" x1="287.4" y1="200.7" x2="227" y2="167"/>
	</g>
	<g>
		<path d="M45.1,281.3l58,63.7c5.5,6,16.4,2.5,16.4-5.3V276v-63.7c0-7.8-10.9-11.3-16.4-5.3l-58,63.7
			C42.3,273.8,42.3,278.2,45.1,281.3z"/>
		<path d="M802.9,278.3l-58,63.7c-5.5,6-16.4,2.5-16.4-5.3V273v-63.7c0-7.8,10.9-11.3,16.4-5.3l58,63.7
			C805.7,270.8,805.7,275.2,802.9,278.3z"/>
	</g>
</g>
</svg>
