<?xml version="1.0" encoding="utf-8"?>
<!-- Generator: Adobe Illustrator 25.2.0, SVG Export Plug-In . SVG Version: 6.00 Build 0)  -->
<svg version="1.1" id="Layer_1" xmlns="http://www.w3.org/2000/svg" xmlns:xlink="http://www.w3.org/1999/xlink" x="0px" y="0px"
	 viewBox="0 0 788 458" style="enable-background:new 0 0 788 458;" xml:space="preserve">
<style type="text/css">
	.st0{fill:none;stroke:#000000;stroke-width:25;stroke-linecap:round;stroke-linejoin:round;stroke-miterlimit:10;}
	.st1{fill:none;stroke:#000000;stroke-width:26;stroke-linecap:round;stroke-linejoin:round;stroke-miterlimit:10;}
</style>
<g>
	<path class="st0" d="M504.4,250.6c0-61.9-50.1-112-112-112s-112,50.1-112,112c0,47.8,29.9,88.5,72,104.6v45.9
		c0,13.2,10.7,23.8,23.8,23.8h32.3c13.2,0,23.8-10.7,23.8-23.8v-45.9C474.5,339.1,504.4,298.4,504.4,250.6z"/>
	<g>
		<line class="st1" x1="237.5" y1="245.7" x2="167.8" y2="245.7"/>
		<line class="st1" x1="259.2" y1="320.3" x2="198.8" y2="354"/>
		<line class="st1" x1="527.4" y1="317.3" x2="587.8" y2="351"/>
		<line class="st1" x1="547.3" y1="242.2" x2="617" y2="242.2"/>
		<line class="st1" x1="525.6" y1="167.7" x2="586" y2="134"/>
		<line class="st1" x1="468.3" y1="113.5" x2="503.1" y2="55.2"/>
		<line class="st1" x1="390.6" y1="94.4" x2="390.6" y2="27"/>
		<line class="st1" x1="313.4" y1="115.3" x2="278.5" y2="56.9"/>
		<line class="st1" x1="257.4" y1="170.7" x2="197" y2="137"/>
	</g>
	<path d="M13.8,257.1l78.1,85.8c7.4,8.1,22,3.4,22-7.1V250v-85.8c0-10.5-14.6-15.2-22-7.1l-78.1,85.8C10,247,10,253,13.8,257.1z"/>
	<path d="M774.2,257.1l-78.1,85.8c-7.4,8.1-22,3.4-22-7.1V250v-85.8c0-10.5,14.6-15.2,22-7.1l78.1,85.8C778,247,778,253,774.2,257.1
		z"/>
</g>
</svg>
