<svg xmlns="http://www.w3.org/2000/svg" viewBox="0 0 1453.42 1237.92"><defs><style>.cls-1{fill:none;}.cls-2{fill:#fff;}</style></defs><g id="Layer_2" data-name="Layer 2"><g id="Layer_1-2" data-name="Layer 1"><path class="cls-1" d="M646.64,1175.86a11.39,11.39,0,0,0-7.71-2.65,13.61,13.61,0,0,0-5.87,1.39,15.64,15.64,0,0,0-5,3.72V1201a14.3,14.3,0,0,0,1.53,7.3,8.17,8.17,0,0,0,3.94,3.54,13.37,13.37,0,0,0,5.11,1,11.84,11.84,0,0,0,7.44-2.42,15.76,15.76,0,0,0,4.88-6.68,25.85,25.85,0,0,0,1.75-9.9,34.39,34.39,0,0,0-1.52-10.71A16,16,0,0,0,646.64,1175.86Z"/><path class="cls-1" d="M1198.93,498.53a23.67,23.67,0,0,1-23.35-19.86l-.5-3.09c-1.46-8.94-2.53-14.06-3.17-16.78a32.51,32.51,0,0,0-2.05-6.41,25.24,25.24,0,0,0-3-4.7l-.19-.24a21.44,21.44,0,0,0-9.46-7.28,46,46,0,0,0-16.92-3.14,17.83,17.83,0,0,0-9.66,2.56,31.37,31.37,0,0,0-9.67,10.34c-3.6,5.82-6.5,13.27-8.61,22.15a144.82,144.82,0,0,0-3.47,33.38c0,12.82,1.25,24.06,3.72,33.43,2.25,8.56,5.26,15.59,9,20.91a30.1,30.1,0,0,0,10.14,9.63,23.17,23.17,0,0,0,11.31,2.82,47.54,47.54,0,0,0,16.15-3.22,15.87,15.87,0,0,0,8-5.8l.25-.34.08-.12.28-.37a20.16,20.16,0,0,0,3.56-7.25c.86-3.43,2.17-10.09,3.58-22.35l.38-3.27a23.65,23.65,0,0,1,23.5-20.95H1212a23.67,23.67,0,0,1,21.19,13.13V485.39A23.66,23.66,0,0,1,1212,498.53Z"/><path class="cls-1" d="M280.67,454.18a123.9,123.9,0,0,1,5.53-13.08l.58-1.13a23.28,23.28,0,0,1-6.11,1.25Z"/><path class="cls-1" d="M725.27,1179.17a10.64,10.64,0,0,0-3.09-4.92,8.1,8.1,0,0,0-5.64-1.93,12.48,12.48,0,0,0-8.65,3.09q-3.45,3.09-4.53,10h22.86A20.68,20.68,0,0,0,725.27,1179.17Z"/><path class="cls-1" d="M594.48,1175.86a11.35,11.35,0,0,0-7.71-2.65,13.61,13.61,0,0,0-5.87,1.39,15.49,15.49,0,0,0-5,3.72V1201c0,3.17.5,5.6,1.52,7.3a8.22,8.22,0,0,0,3.94,3.54,13.4,13.4,0,0,0,5.11,1,11.84,11.84,0,0,0,7.44-2.42,15.76,15.76,0,0,0,4.88-6.68,25.85,25.85,0,0,0,1.75-9.9,34.39,34.39,0,0,0-1.52-10.71A16,16,0,0,0,594.48,1175.86Z"/><path class="cls-1" d="M545.46,1179.17a14.16,14.16,0,0,0-4.17-5.06,10.09,10.09,0,0,0-6.14-1.88,10.87,10.87,0,0,0-7.62,2.69,15.7,15.7,0,0,0-4.34,7,29.74,29.74,0,0,0-1.39,9.23,35.66,35.66,0,0,0,1.52,10.53,19.19,19.19,0,0,0,4.66,8.11,10.7,10.7,0,0,0,7.89,3.14,10.41,10.41,0,0,0,7.53-2.69,15.16,15.16,0,0,0,4-7,33.18,33.18,0,0,0,1.21-9,41.17,41.17,0,0,0-.76-7.94A27.55,27.55,0,0,0,545.46,1179.17Z"/><path class="cls-1" d="M1313.23,443.57l2-2.57c-.66.1-1.34.18-2,.22Z"/><path class="cls-1" d="M114.62,468.14a44.59,44.59,0,0,0,2-13.56c0-7.66-1.36-11-1.93-12a11.67,11.67,0,0,0-1.59-.48v28.3h0A3.59,3.59,0,0,0,114.62,468.14Z"/><path class="cls-1" d="M191.22,481.09a65.64,65.64,0,0,1-6.2,11.15,68.61,68.61,0,0,1,15.64,17.21V441.23a24.06,24.06,0,0,1-4.09-.66,71,71,0,0,1,.84,11A74,74,0,0,1,191.22,481.09Z"/><path class="cls-1" d="M129.65,547.36c0-3.63-.45-10.16-3.4-13.15,0,0-2.86-2.59-13.18-3.18v36.26c6.85-.68,10.82-2.35,12.26-3.82C128.9,559.82,129.65,552.7,129.65,547.36Z"/><path class="cls-1" d="M357.32,472a143.15,143.15,0,0,0-3.46,33.19c0,26.72,3.94,41.83,7.62,50.12V459A88.31,88.31,0,0,0,357.32,472Z"/><path class="cls-1" d="M280.67,568.7a25.36,25.36,0,0,1,3.18.46c-1.14-2.52-2.2-5.09-3.18-7.73Z"/><path class="cls-1" d="M983.38,1176a11.25,11.25,0,0,0-7.94-2.78,12.59,12.59,0,0,0-5.87,1.48,17,17,0,0,0-4.7,3.54c0,.24,0,.59,0,1s.05,1.23.05,2.33v4.93q0,3.29-.05,8.83t0,14.07a17,17,0,0,0,4.88,2.6,17.25,17.25,0,0,0,5.6.9,11,11,0,0,0,7.4-2.65,16.78,16.78,0,0,0,4.75-7.26,33,33,0,0,0,.27-19.8A16.28,16.28,0,0,0,983.38,1176Z"/><path class="cls-1" d="M932.7,1179.17a14.16,14.16,0,0,0-4.17-5.06,10.09,10.09,0,0,0-6.14-1.88,10.85,10.85,0,0,0-7.62,2.69,15.7,15.7,0,0,0-4.34,7,29.74,29.74,0,0,0-1.39,9.23,35.66,35.66,0,0,0,1.52,10.53,19.19,19.19,0,0,0,4.66,8.11,10.7,10.7,0,0,0,7.89,3.14,10.41,10.41,0,0,0,7.53-2.69,15.16,15.16,0,0,0,4-7,33.18,33.18,0,0,0,1.21-9,41.17,41.17,0,0,0-.76-7.94A27.55,27.55,0,0,0,932.7,1179.17Z"/><path class="cls-2" d="M1442.28,791.67,1206,706.17c2.21-10.26,1.07-18.63-3.28-20.2-5.46-2-13.93,7.55-18.9,21.29s-4.57,26.48.9,28.46c4.34,1.57,10.57-4.13,15.45-13.43l236.24,85.5,17-3Z"/><path class="cls-2" d="M1170.94,804.32c4.79-9.34,5.85-17.72,2.06-20.37-4.77-3.32-15.41,3.7-23.77,15.68s-11.27,24.39-6.5,27.72c3.79,2.64,11.29-1.25,18.4-9L1367.2,962.1l17.17,1.53L1377,948.05Z"/><path class="cls-2" d="M1111.64,890c7-7.79,10.24-15.61,7.26-19.14-3.74-4.45-15.84-.42-27,9s-17.2,20.65-13.46,25.09c3,3.54,11.23,1.72,20.1-3.9l161.85,192.16,16.18,5.92-3.07-17Z"/><path class="cls-2" d="M1044.14,940.88c-2.46-5.26-15.19-4.51-28.42,1.69s-22,15.5-19.49,20.76c2,4.18,10.4,4.56,20.42,1.43l106.6,227.5,14.11,9.91,1.41-17.18-106.6-227.5C1041,951.79,1046.1,945.06,1044.14,940.88Z"/><path class="cls-2" d="M268.67,735.72c5.47-2,5.87-14.72.9-28.46S256.13,684,250.67,686c-4.35,1.57-5.49,9.94-3.28,20.2L11.14,791.67,0,804.81l17,3,236.24-85.5C258.09,731.59,264.33,737.29,268.67,735.72Z"/><path class="cls-2" d="M310.69,827.35c4.77-3.33,1.86-15.74-6.5-27.72s-19-19-23.77-15.68c-3.79,2.65-2.73,11,2.06,20.37L76.41,948.05l-7.36,15.58,17.17-1.53L292.29,818.38C299.4,826.1,306.9,830,310.69,827.35Z"/><path class="cls-2" d="M375,905c3.74-4.44-2.28-15.68-13.46-25.09s-23.27-13.44-27-9c-3,3.53.22,11.35,7.26,19.14L179.93,1082.2l-3.07,17,16.18-5.92L354.89,901.08C363.76,906.7,372,908.52,375,905Z"/><path class="cls-2" d="M457.19,963.33c2.46-5.26-6.26-14.56-19.49-20.76s-26-7-28.43-1.69c-2,4.18,3.16,10.91,12,16.61L314.65,1185l1.41,17.18,14.11-9.91,106.6-227.5C446.79,967.89,455.23,967.51,457.19,963.33Z"/><path class="cls-2" d="M262.07,289.36c19.38-19.38-18.56-44.48,11.31-91.82a44.41,44.41,0,0,0,52.36-7.75l45.73-45.73a44.4,44.4,0,0,0,11.35-43.39c64.52-63,82.74-36.53,113.86-70.93A4,4,0,0,0,492,23.51C450.75,43.37,408.31,15,351.11,69.65a44.4,44.4,0,0,0-42.44,11.61L262.94,127a44.42,44.42,0,0,0-7.76,52.36c-47.33,29.86-72.44-8.07-91.81,11.3-11.92,11.93-.7,35.07,31.47,67.24S250.15,301.28,262.07,289.36Z"/><path class="cls-2" d="M1060.6,100.67A44.4,44.4,0,0,0,1072,144.06l45.73,45.73a44.41,44.41,0,0,0,52.36,7.75c29.87,47.34-8.07,72.44,11.3,91.82,11.93,11.92,35.07.7,67.24-31.47s43.39-55.31,31.47-67.24c-19.37-19.37-44.48,18.56-91.81-11.3a44.42,44.42,0,0,0-7.76-52.36l-45.73-45.73a44.4,44.4,0,0,0-42.44-11.61C1035.11,15,992.67,43.37,951.42,23.51a4,4,0,0,0-4.68,6.23C977.86,64.14,996.08,37.71,1060.6,100.67Z"/><path class="cls-2" d="M1071.16,609.91a23.49,23.49,0,0,1-4.15,9.42V739.51c0,16.77-9.56,32.06-25.58,40.93l-154.8,85.67,1.27,7a168,168,0,0,1,2.64,29.66c0,91.7-74.6,166.3-166.29,166.3S558,994.52,558,902.82a169.26,169.26,0,0,1,1.4-21.69l.91-7L408.44,795.65c-16.63-8.6-27-24.57-27-41.66V632.23a137.5,137.5,0,0,1-20-2.33V754c0,24.6,14.47,47.37,37.77,59.42l139.49,72.16c-.52,5.73-.79,11.51-.79,17.25,0,102.72,83.57,186.3,186.3,186.3s186.29-83.58,186.29-186.3a189.43,189.43,0,0,0-1.81-26.08l142.39-78.8c22.14-12.26,35.89-34.64,35.89-58.43V620c-2-1-3.92-2.1-5.82-3.25A102.63,102.63,0,0,1,1071.16,609.91Z"/><path class="cls-2" d="M381.48,377.56v-27c0-14,6.49-26.85,18.29-36.14a57.79,57.79,0,0,1,35.7-12.1,59.85,59.85,0,0,1,14,1.67c75.92,18.3,173.67,28.61,275.24,29,102.48.45,199.74-9.35,273.74-27.51,17.66-4.34,36.44-.47,50.22,10.33,11.81,9.27,18.31,22.09,18.31,36.11v53.77a109.31,109.31,0,0,1,14.06-11c2-1.28,3.93-2.48,5.94-3.62V351.94c0-20-9.46-38.9-26-51.84A78.45,78.45,0,0,0,1009,283.86L1104.81,188l-31.1-31.1L932.37,298.28c-127.9,20.39-294.34,19.42-424-2.71L369.7,156.93,338.61,188,433,282.38a77.78,77.78,0,0,0-45.56,16.33c-16.48,13-25.92,31.87-25.92,51.85v29.6A115.5,115.5,0,0,1,381.48,377.56Z"/><path class="cls-2" d="M366,450.12a58.39,58.39,0,0,0-4.49,8.84V555.3a36.06,36.06,0,0,0,3.28,6c2.91,4.19,7.22,8.46,16.72,10.17V546a23.6,23.6,0,0,1-8.86-18.45v-13a23.63,23.63,0,0,1,7.4-17.19c.47-.44,1-.85,1.46-1.25V437.55a18,18,0,0,0-5.57,2.2A31.33,31.33,0,0,0,366,450.12Z"/><path class="cls-2" d="M702.11,179.11c8.33,3.12,18.36,3.54,27.07,3.54,3.11,0,6.29-.06,9.38-.12s6.17-.12,9.25-.12c17.58,0,37.12,1.59,46.4,20.59a1.41,1.41,0,0,0,1.24.81.91.91,0,0,0,.23,0l1.42-.24q8.28-1.44,16.44-2.85a1.34,1.34,0,0,0,1.12-1.29c.44-27.57,5.67-46.73,16.43-60.3A56.29,56.29,0,0,1,849,124.34a1.3,1.3,0,0,0,.68-1.42c-3.93-20.28-7.15-50.56-1.26-121.46a1.38,1.38,0,0,0-.36-1A1.35,1.35,0,0,0,847,0h0c-40.16,1-78.42,2.84-105.17,14.88a1.35,1.35,0,0,0-.79,1.4c.17,1.51.32,3,.46,4.51a1.36,1.36,0,0,0,1.34,1.2H743l25.63-3.09c.21,0,.42,0,.63,0a5.55,5.55,0,0,1,5.43,5.08,5.67,5.67,0,0,1-4.81,6.29l-26.27,3.17a1.34,1.34,0,0,0-1.18,1.41c.13,3.45.19,6.93.18,10.32a1.36,1.36,0,0,0,1.27,1.38L769.57,48a5.72,5.72,0,0,1-.29,11.4H769L743.47,57.9a1.33,1.33,0,0,0-1.34,1.24c-.21,3.07-.49,6.15-.83,9.17a1.34,1.34,0,0,0,1.13,1.45l27.7,4.56a5.69,5.69,0,0,1,4.55,6.48,5.58,5.58,0,0,1-5.4,4.86,6.36,6.36,0,0,1-.86-.07L740.78,81l-.22,0a1.35,1.35,0,0,0-1.32,1.09c-.59,3.16-1.27,6.31-2,9.37A1.32,1.32,0,0,0,738,93l24.33,9.55a5.81,5.81,0,0,1,3.08,7.33,5.51,5.51,0,0,1-5.11,3.67,5.08,5.08,0,0,1-2-.39l-23.2-9.08a1.32,1.32,0,0,0-1.79.81c-1.2,3.47-2.51,6.89-3.92,10.15a1.32,1.32,0,0,0,.45,1.6l17.72,12.9a5.9,5.9,0,0,1,1.42,7.84,5.41,5.41,0,0,1-4.56,2.54,5.28,5.28,0,0,1-3.12-1L725.1,127.12a1.36,1.36,0,0,0-2,.43c-1.81,3.16-3.76,6.23-5.81,9.12a1.34,1.34,0,0,0,.21,1.76l13.32,13a5.91,5.91,0,0,1,.46,8,5.31,5.31,0,0,1-7.83.47l-12.9-12.61a1.36,1.36,0,0,0-.92-.36,1.33,1.33,0,0,0-1,.43c-.73.78-1.47,1.54-2.22,2.29-5.22,5.23-11.23,10.58-19.77,14.3a1.33,1.33,0,0,0-.76.83,1.26,1.26,0,0,0,.11,1.06A30.37,30.37,0,0,0,702.11,179.11Z"/><path class="cls-2" d="M838.61,145.55c-9,11.36-13.51,27.78-14.16,51.67a1.33,1.33,0,0,0,.38,1,1.35,1.35,0,0,0,1,.42l.23,0c13.34-2.2,24.15-3.79,34-5a1.33,1.33,0,0,0,1.18-1.37c-.68-23.77-4-37.11-7.45-51.22-.41-1.68-.83-3.37-1.25-5.09a1.37,1.37,0,0,0-1.32-1,1.21,1.21,0,0,0-.66.19A45.81,45.81,0,0,0,838.61,145.55Z"/><path class="cls-2" d="M662.12,247.69c34.44,0,71-4.39,100.42-12.05a5.76,5.76,0,0,1,1.36-.17,5.35,5.35,0,0,1,5.34,5.35v10.27a1.34,1.34,0,0,0,1.33,1.35h0c40.26-.31,81.27-6.61,99.71-15.32a1.35,1.35,0,0,0,.77-1.41l-4.45-31.39a1.34,1.34,0,0,0-1.32-1.17h-.16c-21,2.45-43.27,6.34-66.88,10.45-18,3.14-36.64,6.39-54.57,8.9-5.65.79-11.28,1.61-16.73,2.4l-.16,0c-27.37,4-53.21,7.73-78,7.73-4.25,0-8.43-.11-12.41-.34-22.25-1.25-41.77-6.06-59.7-14.7a1.38,1.38,0,0,0-.59-.14,1.35,1.35,0,0,0-1.31,1l-2.41,9.59a1.35,1.35,0,0,0,.41,1.34C586.49,241,619.05,247.69,662.12,247.69Z"/><path class="cls-2" d="M577.38,206.68c21,10.77,43.77,15.79,71.81,15.79h0c24.08,0,49.41-3.68,76.33-7.59,5.49-.79,11.17-1.62,16.87-2.42,14-2,28.1-4.32,40.1-6.39a1.29,1.29,0,0,0,1-.81,1.34,1.34,0,0,0-.15-1.32c-3.16-4.41-7.67-7.41-13.77-9.18-6.76-1.95-14.67-2.22-21.51-2.22-3,0-6.09.06-9.33.12s-6.4.12-9.61.12c-9.53,0-20.58-.49-30.33-4.14a40.1,40.1,0,0,1-22.54-20.25,1.38,1.38,0,0,0-1.23-.76,1.53,1.53,0,0,0-.3,0c-7.94,1.71-17.82,2.54-30.2,2.54-6.25,0-13.12-.2-21-.62-1.2-.06-2.39-.09-3.56-.09-14.11,0-26.28,4.56-34.28,12.84a31.55,31.55,0,0,0-9,23.18A1.36,1.36,0,0,0,577.38,206.68Z"/><path class="cls-2" d="M51.09,419.54a6.55,6.55,0,0,1,4.19,4.26c.65,1.91,1.43,5.82,1.43,13.63v135c0,6.1-.48,10.65-1.44,13.52a6.17,6.17,0,0,1-4.09,4.21c-2.85,1-7.23,1.64-13,2l-3.48.2v13l4-.39c3.67-.35,8.61-.57,14.67-.66s12.51-.14,18.72-.14c11.14,0,20.8.14,28.71.41s14.06.41,18.09.41c21.31,0,38.27-5.29,50.43-15.72,12.32-10.58,18.56-24.29,18.56-40.76a51.75,51.75,0,0,0-5.27-22.84c-3.56-7.32-9.74-13.74-18.38-19.08-5.92-3.66-13.45-6.52-22.48-8.55a62.45,62.45,0,0,0,13.63-8.3,48.51,48.51,0,0,0,14.11-18,50.44,50.44,0,0,0,4.25-20.11A41.91,41.91,0,0,0,158,418c-10.26-8.51-25.51-12.82-45.35-12.82-3.22,0-8.68.09-16.69.27-7.66.18-15.87.27-24.4.27-6,0-12.07-.09-18.12-.27s-11.06-.36-14.89-.54l-3.88-.18v12.9l3.59.11C44,417.9,48.31,418.51,51.09,419.54Zm38.32,17.89c0-11.15,1.86-15.07,3-16.42s4.1-3.28,13.48-3.28c12.42,0,21.32,3,26.45,8.93,5.27,6.08,7.94,15.47,7.94,27.92a68,68,0,0,1-3.09,20.77,27.15,27.15,0,0,1-10.57,14.43c-5.15,3.62-12.76,5.45-22.64,5.45H89.41Zm0,69.82h19.16c16.12,0,27.73,3.47,34.51,10.33s10.22,16.89,10.22,29.78c0,14.16-3.72,25.15-11.05,32.65s-19.47,11.27-36.13,11.27c-9.5,0-12.7-1.91-13.76-3-.89-1-3-4.38-3-15.84Z"/><path class="cls-2" d="M218.7,419.54a6.51,6.51,0,0,1,4.18,4.26c.66,1.91,1.44,5.82,1.44,13.63v135c0,6.1-.49,10.65-1.45,13.52a6.16,6.16,0,0,1-4.08,4.21c-2.85,1-7.24,1.64-13,2l-3.48.2v13l4-.39c3.68-.35,8.62-.57,14.67-.66,6.22-.09,12.88-.14,19.81-.14,6.2,0,12.55,0,18.86.14,6.15.09,11.33.31,15.38.66l4,.35v-13l-3.48-.2c-5.8-.34-10.18-1-13-2a6.1,6.1,0,0,1-4.08-4.21c-1-2.87-1.45-7.42-1.45-13.52v-135c0-7.81.78-11.72,1.44-13.62a6.5,6.5,0,0,1,4.18-4.27c2.78-1,7.1-1.64,12.84-1.81l3.58-.11V404.73l-3.86.17c-4.22.18-9.46.37-15.59.54s-12.46.27-18.8.27c-7.06,0-13.71-.09-19.75-.27s-11.06-.36-14.9-.54l-3.87-.18v12.9l3.58.11C211.6,417.9,215.92,418.51,218.7,419.54Z"/><path class="cls-2" d="M339.88,414.32c-13.66,8.76-24.58,21.3-32.47,37.26s-11.81,34.9-11.81,56.6c0,31.1,8.25,55.88,24.51,73.64s39.37,26.92,68.43,26.92a68.06,68.06,0,0,0,24.75-4.2,83.36,83.36,0,0,0,19.88-11.21,44.78,44.78,0,0,1,5.19-3.49,3.64,3.64,0,0,1,1.61-.42c.41,0,1.14.9,1.79,2.89a37.2,37.2,0,0,1,1.86,9.14l.21,3.48h12.62V547.36c0-13.13,1.43-16.37,1.86-17.05s2.13-2.27,8.55-2.66l3.47-.21V514.61l-3.9.22c-3.29.18-7.34.36-12.05.54s-10.1.27-16.05.27c-4.09,0-8.51,0-13.12-.14l-13.74-.27c-4.27-.09-8.07-.22-11.29-.4l-3.91-.22v13l3.61.08c7.22.18,12.68.85,16.22,2a8.56,8.56,0,0,1,5.74,5.2c1.27,3.18,1.92,8.3,1.92,15.23V576.2A17.63,17.63,0,0,1,422.7,583c-.35.81-1.5,2.54-5.19,5.07a58.93,58.93,0,0,1-10.6,5.22,42.74,42.74,0,0,1-15.65,2.59c-21,0-36.06-6.91-45.94-21.13-10-14.44-15.12-37.85-15.12-69.59a166.87,166.87,0,0,1,4.12-38.72c2.7-11.25,6.62-21,11.64-29a54.61,54.61,0,0,1,17.7-18,43.19,43.19,0,0,1,22.71-6.13,62,62,0,0,1,24.91,5.27,48.83,48.83,0,0,1,19.25,14.54l.05.06a43.17,43.17,0,0,1,8.26,16.8c1.78,7,3.31,14.27,4.56,21.73l.51,3.09H457v-3.7c0-15.74.09-28.53.27-38s.45-17.73.81-24.36l.21-3.89H444.78l-.33,3.33c-1,10.12-2.74,12.66-3.26,13.2a12.34,12.34,0,0,1-3.1-1.93,132.87,132.87,0,0,0-21-12.73c-7.73-3.77-17.89-5.68-30.19-5.68C369.4,401.09,353.58,405.54,339.88,414.32Z"/><path class="cls-2" d="M551.36,404.72v12.9l3.59.11c5.73.17,10,.78,12.83,1.81A6.51,6.51,0,0,1,572,423.8c.66,1.91,1.44,5.82,1.44,13.63v135c0,6.1-.49,10.65-1.44,13.52a6.17,6.17,0,0,1-4.09,4.21c-2.85,1-7.23,1.64-13,2l-3.48.2v13l4-.39c3.68-.35,8.62-.57,14.67-.66,6.22-.09,12.52-.14,18.72-.14,11.15,0,20.81.14,28.72.41s14.06.41,18.08.41c21.31,0,38.28-5.29,50.43-15.72,12.32-10.58,18.57-24.29,18.57-40.76a51.75,51.75,0,0,0-5.27-22.84c-3.56-7.32-9.74-13.73-18.39-19.08C675,502.87,667.48,500,658.45,498a62,62,0,0,0,13.63-8.3,48.4,48.4,0,0,0,14.11-18,50.44,50.44,0,0,0,4.25-20.11A41.9,41.9,0,0,0,674.69,418c-10.26-8.51-25.52-12.82-45.36-12.82-3.22,0-8.67.09-16.68.27-7.66.18-15.87.27-24.4.27-6,0-12.08-.09-18.12-.27s-11.06-.36-14.9-.54Zm71.45,186.56c-9.51,0-12.7-1.91-13.77-3-.88-1-2.95-4.38-2.95-15.84V507.25h19.16c16.13,0,27.74,3.47,34.51,10.33S670,534.47,670,547.36c0,14.16-3.72,25.15-11.06,32.65S639.47,591.28,622.81,591.28ZM606.09,437.43c0-11.15,1.86-15.07,3-16.42s4.1-3.28,13.47-3.28c12.42,0,21.32,3,26.46,8.93,5.27,6.08,7.94,15.47,7.94,27.92a68,68,0,0,1-3.09,20.77,27.11,27.11,0,0,1-10.58,14.43c-5.14,3.62-12.76,5.45-22.63,5.45H606.09Z"/><path class="cls-2" d="M735.38,419.54a6.55,6.55,0,0,1,4.19,4.26c.65,1.91,1.43,5.82,1.43,13.63v135c0,6.1-.48,10.65-1.44,13.52a6.18,6.18,0,0,1-4.08,4.21c-2.85,1-7.24,1.64-13,2l-3.48.2v12.78l3.85-.15c8.76-.36,18.33-.59,28.45-.68s19.91-.14,28.67-.14h21.64c8.95,0,19.09,0,31,.14,11.57.09,22.06.32,31.18.68l1.89.07v.45l4.18-.55a81.21,81.21,0,0,1,8.46-.65c3.17-.09,7-.14,11.46-.14s9.74,0,15.31.14,10.76.32,15.72.67l4,.28v-13l-3.61-.09c-7-.16-12.2-1.27-15.62-3.29-1.82-1.08-4.26-3.15-4.45-8.78-.16-5,1.59-12.24,5.2-21.54L916.42,532h60.7l15.82,42.27c4.47,11.42,2.56,14,2.33,14.27-.83.92-4,3.11-15.09,3.55l-3.55.14V605.3l4-.39c3.67-.35,8.61-.57,14.66-.66,6.22-.09,12.89-.14,19.81-.14,5.13,0,10.42,0,15.72.14s9.53.31,13,.66l4.06.4v-13l-3.47-.21a16.59,16.59,0,0,1-7.72-3.07c-1.91-1.26-4.82-4.36-7.83-12l-67.3-173.5h-9.42L887.35,570.81c-2.86,7.56-6,12.88-9.32,15.81a23.69,23.69,0,0,1-9.61,5.58l-1.63.41c-.31-3.92-.56-7.78-.72-11.53-.27-6.37-.4-11.31-.4-14.68,0-9.08.26-16.47.79-21.95l.4-4.05H853.19l-.34,3.32c-1.24,12.16-3.14,21.94-5.66,29.07-2.34,6.62-6,11.21-11.09,14.05-5.32,2.94-13.46,4.44-24.19,4.44H792c-5.77,0-10.11-.45-12.9-1.33a5.74,5.74,0,0,1-4-4c-.95-2.87-1.44-7.42-1.44-13.52v-135c0-7.81.78-11.72,1.43-13.63a6.55,6.55,0,0,1,4.19-4.26c2.77-1,7.09-1.64,12.83-1.81l3.59-.11V404.73l-3.86.17c-4.22.19-9.47.37-15.59.54s-12.46.27-18.8.27c-7.07,0-13.71-.09-19.76-.27s-11.06-.35-14.89-.54l-3.88-.18v12.9l3.59.11C728.29,417.9,732.61,418.51,735.38,419.54ZM947.2,452.06l25.11,67.11H921.36Z"/><path class="cls-2" d="M1062.17,451.59c-7.65,15.67-11.53,34.16-11.53,55,0,21.15,3.74,39.55,11.12,54.67,7.45,15.28,18.09,27.16,31.62,35.29s29.37,12.23,47.21,12.23c12.28,0,22.56-1.91,30.55-5.66A146.9,146.9,0,0,0,1193,590.43c2.22-1.4,3.31-1.51,3.59-1.51.09,0,.13,0,.13,0,.3.35,1.86,2.61,2.79,12.62l.32,3.36h11.38V592.3a23.46,23.46,0,0,1,1.32-7.71c-.08-2.82-.14-5.76-.2-8.87-.18-9.89-.27-23.28-.27-39.79v-3.7h-13.25l-.38,3.28a208,208,0,0,1-4.13,25.37,43.68,43.68,0,0,1-7.65,15.81l-.09.11a39.39,39.39,0,0,1-19.19,14.43A70.8,70.8,0,0,1,1143,595.9a47,47,0,0,1-22.59-5.67,53.57,53.57,0,0,1-18.31-17c-5.26-7.59-9.43-17.13-12.39-28.36s-4.5-24.61-4.5-39.46a168.21,168.21,0,0,1,4.12-38.87c2.7-11.35,6.57-21.14,11.51-29.11s10.67-13.87,17.31-18a41.29,41.29,0,0,1,22.13-6.11,69.51,69.51,0,0,1,25.58,4.77,45,45,0,0,1,19.66,15,49.37,49.37,0,0,1,5.7,9.11,56.71,56.71,0,0,1,3.69,11.1c1.06,4.49,2.23,10.68,3.49,18.39l.5,3.1H1212v-3.7c0-15.78.09-28.57.27-38q.08-4.09.18-7.86a23.48,23.48,0,0,1-1.3-7.67V404.9H1199.8l-.32,3.35c-.9,9.72-2.51,12.16-3,12.68-.11.12-.17.15-.24.15s-1.11-.07-3.08-1.54a105,105,0,0,0-21.25-12.81c-8.16-3.74-18.61-5.64-31.06-5.64-17.53,0-33.27,4.5-46.79,13.39S1069.86,435.83,1062.17,451.59Z"/><path class="cls-2" d="M1292.16,405.44c-6.13.18-12.46.27-18.8.27-7.06,0-13.71-.09-19.75-.27s-11.07-.36-14.9-.54l-3.87-.18v12.9l3.58.11c5.74.17,10.06.78,12.84,1.81a6.51,6.51,0,0,1,4.18,4.26c.66,1.91,1.44,5.82,1.44,13.63v135c0,6.1-.49,10.65-1.45,13.52a6.16,6.16,0,0,1-4.08,4.21c-2.85,1-7.23,1.64-13,2l-3.48.2v13l4-.39c3.68-.35,8.62-.57,14.67-.66,6.22-.09,12.88-.14,19.81-.14,6.2,0,12.55,0,18.86.14,6.15.09,11.33.31,15.38.66l4,.35v-13l-3.48-.2c-5.8-.34-10.18-1-13-2a6.1,6.1,0,0,1-4.08-4.21c-1-2.87-1.45-7.42-1.45-13.52V507.91A33.57,33.57,0,0,1,1295,509a17.72,17.72,0,0,1,7.17,4.66,76,76,0,0,1,9.2,12.08l39.76,59.92c2,2.85,2.13,4.16,2.13,4.47-.37.33-2.21,1.58-9.1,2l-3.48.2v12.83l3.89-.21c6.6-.35,12.19-.58,16.61-.67s8.2-.14,11.22-.14c4.45,0,9.82,0,16.41.14,6.34.09,11.71.31,15.93.67l4,.33V592.93l-2.78-.72a39,39,0,0,1-12.68-5.44,36.81,36.81,0,0,1-9.12-9.65l-61.63-86.29,42.7-54.65c4.93-6.29,9.86-10.82,14.66-13.47a42.26,42.26,0,0,1,15-5l3.23-.42V404.51l-4.07.4c-5.29.53-13,.8-22.76.8-4.7,0-9.79-.09-15.11-.27l-16-.54-3.82-.13v12.87l3.6.09c8.49.2,11.31,2.07,12.22,3.17,1.39,1.66,1.29,4.46-.31,8.32-2,4.92-6,11.13-11.73,18.44L1314,480.85a38.11,38.11,0,0,1-11.8,9.8,34.28,34.28,0,0,1-12.63,3.69V437.43c0-7.81.78-11.72,1.44-13.63a6.51,6.51,0,0,1,4.18-4.26c2.78-1,7.1-1.64,12.84-1.81l3.58-.11V404.73l-3.86.17C1303.53,405.08,1298.29,405.27,1292.16,405.44Z"/><path class="cls-2" d="M566,735.33c-2-3.13-5.32-5.68-10-7.61s-11-2.87-19-2.77v-.26a47.16,47.16,0,0,0,13.79-7.28,25.62,25.62,0,0,0,7.37-9A20.83,20.83,0,0,0,560.3,699c-.19-6.1-3-10.85-8.47-14.19s-13.56-4.45-24.3-3.19c-1.72.2-4.67.59-8.84,1.19s-8.54,1.2-13.14,1.8c-3.44.45-6.92.87-10.41,1.26s-6.35.7-8.56.92c.05,1.06.08,1.59.13,2.65a25,25,0,0,1,7.29,0,4.42,4.42,0,0,1,3.44,2.73,23.68,23.68,0,0,1,1.11,7.12q1.45,32.85,2.92,65.72a25.66,25.66,0,0,1-.46,7.26,5.4,5.4,0,0,1-3,3.61,32.2,32.2,0,0,1-7.14,2.07c.05,1.06.07,1.59.12,2.65q3.23-.74,8.37-1.51t10.5-1.47c5.92-.77,11-1.33,15.17-1.71s7.37-.72,9.39-.9c8.3-.76,19.44-4.1,26-9.84,6-5.31,9.08-11.83,8.84-19.61A19.73,19.73,0,0,0,566,735.33Zm-49.46-47.65c1.23-1.66,3.91-2.75,8-3.24,6.52-.77,11.23.37,14.13,3.37s4.46,7.8,4.69,14.34A36.17,36.17,0,0,1,542.24,713a16.59,16.59,0,0,1-5.57,8.6q-4.17,3.46-12,4.4c-3.44.41-5.68.68-8.41,1l-1.23-30C514.83,692.48,515.35,689.34,516.58,687.68Zm30.13,76.76c-3.68,4.44-9.75,7.12-18.23,8.12-4.23.51-7,.16-8.41-1s-2.15-4.11-2.34-8.7l-1.38-33.54c3.3-.42,5.88-.73,10-1.22,8.83-1,15.25.12,19.23,3.42s6.07,8.37,6.31,15.18Q552.24,757.81,546.71,764.44Z"/><path class="cls-2" d="M629.35,768.66a49.51,49.51,0,0,0,24.14-7.44,45.83,45.83,0,0,0,16.43-18q5.87-11.36,5.74-26.22-.13-15.29-6.14-25.81a38.38,38.38,0,0,0-16.84-15.8c-7.23-3.51-15.57-5-25-4.49a48.36,48.36,0,0,0-24.54,7.81,47.34,47.34,0,0,0-16.33,18.68Q581,709,581.43,723.9q.42,15.14,6.55,25.4a37.58,37.58,0,0,0,16.74,15.21C611.8,767.82,620,769.18,629.35,768.66Zm-25.92-22.47q-4.23-10.14-4.58-24.21a76.23,76.23,0,0,1,3-24.56q3.35-10.75,9.84-17.18a23.27,23.27,0,0,1,15.46-6.93,22.66,22.66,0,0,1,15.47,4.84q6.93,5.33,11.18,15.53t4.41,24.42a75.55,75.55,0,0,1-3.32,24.39q-3.5,10.71-9.86,17a23.14,23.14,0,0,1-30.43,2Q607.66,756.32,603.43,746.19Z"/><path class="cls-2" d="M712.27,760.36c7,3.77,15.18,5.67,24.54,5.76a48,48,0,0,0,24.3-5.84,43,43,0,0,0,16.81-16.93q6.11-11,6.3-25.82.19-15.28-5.57-26.19a40.88,40.88,0,0,0-16.49-16.9q-10.73-6-24.9-6.13a46.84,46.84,0,0,0-24.72,6.2,44.43,44.43,0,0,0-16.74,17.58q-6.06,11.26-5.95,26.16.09,15.15,6,25.81A40.15,40.15,0,0,0,712.27,760.36Zm-1.43-67.24q3.58-10.51,10.22-16.51a22.25,22.25,0,0,1,15.61-5.91A23.5,23.5,0,0,1,752,676.55q6.83,5.78,10.84,16.25t3.88,24.69a74,74,0,0,1-3.85,24.16q-3.72,10.47-10.22,16.32a21.77,21.77,0,0,1-15.29,5.76A23.51,23.51,0,0,1,722.21,758q-6.83-5.65-10.83-16t-4.06-24.49A75,75,0,0,1,710.84,693.12Z"/><path class="cls-2" d="M851.35,675.54q-7.35-.57-13.42-1c-4-.28-8.56-.59-13.56-.89s-10-.64-14.87-1l-13.57-.92q.5,5.61.63,10.86t.1,8c0,2-.09,4-.16,5.84a42.71,42.71,0,0,1-.43,4.77l3.3.15a68.28,68.28,0,0,1,4-15.5,14.81,14.81,0,0,1,7.06-7.88c3.1-1.52,7.35-2.13,12.74-1.8l6.35.4-1.62,75.7c-.08,3.54-.51,6.17-1.31,7.89a5.74,5.74,0,0,1-4.32,3.26,44.7,44.7,0,0,1-9.24.59l0,2.65q3.69-.06,9.71.24c4,.21,8.29.46,12.82.78,4.35.3,8.59.64,12.75,1s7.54.76,10.18,1.16l.07-2.66a48.08,48.08,0,0,1-9.24-1.88,6.37,6.37,0,0,1-4.17-3.84,23.21,23.21,0,0,1-.86-8l1.86-75.68,6.2.47c5.57.44,9.83,1.65,12.76,3.58a17.54,17.54,0,0,1,6.59,8.84,69.3,69.3,0,0,1,3.33,16l3.29.31c0-1.33-.1-2.93-.13-4.8s0-3.82,0-5.85c.05-1.86.21-4.53.46-8s.63-7.06,1.13-10.74q-6.06-.45-13.55-1T851.35,675.54Z"/><path class="cls-2" d="M942.33,733.86c-3.67-3.29-7.82-6.68-12.45-10.09s-8.61-6.33-12.19-9a38.29,38.29,0,0,1-8.37-8.3,16.08,16.08,0,0,1-2.79-10.11,12.21,12.21,0,0,1,5.21-10.13q5-3.5,12.3-2.6a22.54,22.54,0,0,1,12.84,5.48,27.63,27.63,0,0,1,7.31,11,39.9,39.9,0,0,1,2.51,13l3.28.45q.39-8.61.71-13.9c.21-3.52.43-6.36.68-8.5s.44-4,.61-5.58l-3.3-.46q-1.12,5.71-3.42,5.4a5.71,5.71,0,0,1-2.06-.74c-.7-.41-1.61-1-2.74-1.77a48.84,48.84,0,0,0-6.89-4.36c-2.63-1.4-6.49-2.43-11.57-3a37,37,0,0,0-14.13.89A22,22,0,0,0,897,688q-4.28,4.74-4.55,12.84a23.49,23.49,0,0,0,3.08,13,37.78,37.78,0,0,0,9,10.29q5.7,4.63,12.24,9.4a101.63,101.63,0,0,1,15.4,12.9,18.82,18.82,0,0,1,5.44,14.24q-.37,8.61-6.05,11.94A19.78,19.78,0,0,1,918.81,775q-9-1.1-14.31-6a28.28,28.28,0,0,1-7.66-12.36,57.76,57.76,0,0,1-2.65-15.73l-3.28-.34q-.31,9.69-.61,16c-.19,4.24-.36,7.66-.49,10.26s-.33,4.87-.59,6.8l3.25.34q1-5.74,3.32-5.51c1.13.12,2.72,1,4.74,2.38a55.56,55.56,0,0,0,7.78,4.2,42.73,42.73,0,0,0,12.5,3.08,43.49,43.49,0,0,0,15.91-.77,23.12,23.12,0,0,0,11.87-6.85q4.56-5,5-13.63a23.36,23.36,0,0,0-2.7-12.65A40.29,40.29,0,0,0,942.33,733.86Z"/><polygon class="cls-2" points="741.27 891.98 718.96 823.31 696.65 891.98 624.45 891.98 682.86 934.41 660.55 1003.08 718.96 960.64 777.38 1003.08 755.06 934.41 813.48 891.98 741.27 891.98"/><path class="cls-2" d="M494.73,1209.2a26.83,26.83,0,0,1-11.47,2.64,21.61,21.61,0,0,1-12.1-3.58,25.16,25.16,0,0,1-8.69-10,32.85,32.85,0,0,1-3.23-14.88,36.89,36.89,0,0,1,1.8-11.92,27.82,27.82,0,0,1,4.93-9.05,21.72,21.72,0,0,1,7.3-5.78,20.28,20.28,0,0,1,8.92-2,18,18,0,0,1,12.77,4.66q5,4.66,5.87,13.09h3.22v-20.79h-4.84l.45,4.84a31.77,31.77,0,0,0-8.6-4.13,33.15,33.15,0,0,0-9.5-1.34,30.81,30.81,0,0,0-13.67,2.87,27.92,27.92,0,0,0-9.72,7.7,33.85,33.85,0,0,0-5.78,10.85,40.08,40.08,0,0,0-1.93,12.37,34.8,34.8,0,0,0,2.2,12.5,30.4,30.4,0,0,0,6.27,10.13,28.75,28.75,0,0,0,9.68,6.76,30.78,30.78,0,0,0,12.32,2.42,35.86,35.86,0,0,0,8.11-1,28.5,28.5,0,0,0,8.92-3.9,31.52,31.52,0,0,0,8.33-8.15l-2.33-1.88A23.26,23.26,0,0,1,494.73,1209.2Z"/><path class="cls-2" d="M546.53,1171.83a22,22,0,0,0-11.38-3,20.84,20.84,0,0,0-11.47,3.27,23.21,23.21,0,0,0-8.07,8.92,27.06,27.06,0,0,0-3,12.73,23,23,0,0,0,3,11.78,21.59,21.59,0,0,0,8.11,8.07,22.6,22.6,0,0,0,11.38,2.91,20.6,20.6,0,0,0,11.47-3.31,23.66,23.66,0,0,0,8.11-9,26.59,26.59,0,0,0,3-12.59,22.3,22.3,0,0,0-3-11.65A22.73,22.73,0,0,0,546.53,1171.83Zm.85,31.41a15.16,15.16,0,0,1-4,7,10.41,10.41,0,0,1-7.53,2.69,10.7,10.7,0,0,1-7.89-3.14,19.19,19.19,0,0,1-4.66-8.11,35.66,35.66,0,0,1-1.52-10.53,29.74,29.74,0,0,1,1.39-9.23,15.7,15.7,0,0,1,4.34-7,10.87,10.87,0,0,1,7.62-2.69,10.09,10.09,0,0,1,6.14,1.88,14.16,14.16,0,0,1,4.17,5.06,27.55,27.55,0,0,1,2.37,7.08,41.17,41.17,0,0,1,.76,7.94A33.18,33.18,0,0,1,547.38,1203.24Z"/><path class="cls-2" d="M599.81,1171.6a19.71,19.71,0,0,0-10.35-2.78,20.19,20.19,0,0,0-7.57,1.39,17.72,17.72,0,0,0-6,3.9V1147.4h-2.6a6.33,6.33,0,0,1-1.75,1.17,12.75,12.75,0,0,1-3.32.9,40.36,40.36,0,0,1-6.13.35v3.77l3.18-.18,3.18-.18c-.12,1.2-.2,2.23-.23,3.09s0,1.78,0,2.74l-.18,56h3.14l2.15-4a14.27,14.27,0,0,0,6.5,4.35,21.86,21.86,0,0,0,18-1.93,23.62,23.62,0,0,0,8.61-8.64,28.29,28.29,0,0,0,.62-25.32A19.57,19.57,0,0,0,599.81,1171.6Zm-1,32.13a15.76,15.76,0,0,1-4.88,6.68,11.84,11.84,0,0,1-7.44,2.42,13.4,13.4,0,0,1-5.11-1,8.22,8.22,0,0,1-3.94-3.54c-1-1.7-1.52-4.13-1.52-7.3v-22.68a15.49,15.49,0,0,1,5-3.72,13.61,13.61,0,0,1,5.87-1.39,11.35,11.35,0,0,1,7.71,2.65,16,16,0,0,1,4.57,7.26,34.39,34.39,0,0,1,1.52,10.71A25.85,25.85,0,0,1,598.82,1203.73Z"/><path class="cls-2" d="M652,1171.6a19.71,19.71,0,0,0-10.35-2.78,20.25,20.25,0,0,0-7.58,1.39,17.82,17.82,0,0,0-6,3.9V1147.4h-2.59a6.48,6.48,0,0,1-1.75,1.17,12.75,12.75,0,0,1-3.32.9,40.42,40.42,0,0,1-6.14.35v3.77l3.18-.18,3.19-.18c-.12,1.2-.2,2.23-.23,3.09s0,1.78,0,2.74l-.18,56h3.13l2.16-4a14.24,14.24,0,0,0,6.49,4.35,22.7,22.7,0,0,0,6.68,1.12,22.45,22.45,0,0,0,11.38-3,23.6,23.6,0,0,0,8.6-8.64,28.25,28.25,0,0,0,.63-25.32A19.63,19.63,0,0,0,652,1171.6Zm-1,32.13a15.76,15.76,0,0,1-4.88,6.68,11.84,11.84,0,0,1-7.44,2.42,13.37,13.37,0,0,1-5.11-1,8.17,8.17,0,0,1-3.94-3.54,14.3,14.3,0,0,1-1.53-7.3v-22.68a15.64,15.64,0,0,1,5-3.72,13.61,13.61,0,0,1,5.87-1.39,11.39,11.39,0,0,1,7.71,2.65,16,16,0,0,1,4.57,7.26,34.39,34.39,0,0,1,1.52,10.71A25.85,25.85,0,0,1,651,1203.73Z"/><path class="cls-2" d="M681.41,1211.66a26.14,26.14,0,0,0,.35-2.91q.09-1.39.09-3.18l-.09-58.17h-2.59a6.33,6.33,0,0,1-1.75,1.17,12.75,12.75,0,0,1-3.32.9,40.42,40.42,0,0,1-6.14.35v3.77l3.18-.18,3.19-.18c-.12,1.2-.2,2.23-.23,3.09s0,1.78,0,2.74v42.39c0,2.15-.06,4-.18,5.69a7,7,0,0,1-1.26,3.85c-.71.93-2,1.39-3.85,1.39v2.69h18.28v-3.68c-.95.06-1.89.11-2.82.14S682.36,1211.6,681.41,1211.66Z"/><path class="cls-2" d="M729,1208.26a22.66,22.66,0,0,1-5.42,2.69,17.88,17.88,0,0,1-5.69,1,12.68,12.68,0,0,1-8.51-2.82,15.93,15.93,0,0,1-4.8-8,43.7,43.7,0,0,1-1.48-12l31.55-.54a24.37,24.37,0,0,0-1.43-8.74,17.25,17.25,0,0,0-4-6.18,16.25,16.25,0,0,0-5.78-3.68,20.24,20.24,0,0,0-7-1.21,21,21,0,0,0-11.83,3.36,23,23,0,0,0-7.93,8.83,25.15,25.15,0,0,0-2.83,11.74,26.21,26.21,0,0,0,2.87,12.59,20.66,20.66,0,0,0,7.84,8.25,21.71,21.71,0,0,0,11.16,2.91,25.41,25.41,0,0,0,6.63-1,24.73,24.73,0,0,0,7-3.23,20.15,20.15,0,0,0,5.83-6l-2.15-1.8A16.35,16.35,0,0,1,729,1208.26Zm-21.1-32.85a12.48,12.48,0,0,1,8.65-3.09,8.1,8.1,0,0,1,5.64,1.93,10.64,10.64,0,0,1,3.09,4.92,20.68,20.68,0,0,1,1,6.23H703.36Q704.44,1178.5,707.89,1175.41Z"/><path class="cls-2" d="M775,1170.17a7.35,7.35,0,0,0-4.39-1.35,13.68,13.68,0,0,0-6.14,1.44,22.16,22.16,0,0,0-5.25,3.58,20.61,20.61,0,0,0-3.67,4.39c-.06-2.15-.12-3.92-.18-5.33s-.15-2.58-.27-3.54h-2.6A11.34,11.34,0,0,1,750,1171a12.88,12.88,0,0,1-5.33.76H741.9v3.68c1.07-.06,2.13-.11,3.18-.14s2.11-.07,3.18-.13a20.54,20.54,0,0,0-.31,3c0,1-.05,1.92-.05,2.87v20.44c0,2.15-.06,4-.18,5.69a7,7,0,0,1-1.25,3.85c-.72.93-2,1.39-3.85,1.39v2.69H761v-3.68c-1,.06-1.9.11-2.83.14s-1.86.07-2.82.13a20.31,20.31,0,0,0,.31-2.91c0-.93.05-2,.05-3.18l-.09-22a25.13,25.13,0,0,1,3.67-5.15,17.09,17.09,0,0,1,4.44-3.45,9,9,0,0,1,4.62-1.17,4.4,4.4,0,0,0,.89,3.45,4,4,0,0,0,3.14,1.57,4.14,4.14,0,0,0,2.6-.76,4.89,4.89,0,0,0,1.88-3.54A4.92,4.92,0,0,0,775,1170.17Z"/><path class="cls-2" d="M831.52,1192.48c-2.15-1.13-4.37-2.18-6.63-3.13q-3.15-1.26-5.92-2.6a15.73,15.73,0,0,1-4.53-3.18,6.47,6.47,0,0,1-1.74-4.62,6.19,6.19,0,0,1,2.33-4.75,9.41,9.41,0,0,1,6.45-2.06,9.72,9.72,0,0,1,6.27,1.93,12.2,12.2,0,0,1,3.68,4.84,17.84,17.84,0,0,1,1.43,6h2.87v-15.69H832l.17,3.41a15.69,15.69,0,0,0-5.73-3,20.56,20.56,0,0,0-5.38-.81,18.92,18.92,0,0,0-7.53,1.3,12.3,12.3,0,0,0-7.08,7.58,13.47,13.47,0,0,0-.71,4.12,11.25,11.25,0,0,0,1.34,5.73,12.42,12.42,0,0,0,3.63,4,28.15,28.15,0,0,0,5,2.78q2.7,1.15,5.38,2.24a49.94,49.94,0,0,1,5.2,2.33,13.34,13.34,0,0,1,3.9,2.91,6.06,6.06,0,0,1,1.48,4.17,5.45,5.45,0,0,1-1.53,4,9.19,9.19,0,0,1-3.76,2.33,14.1,14.1,0,0,1-4.57.77,13.28,13.28,0,0,1-13.27-12.73h-2.77l.53,15.41H810l-.36-3.13a24.62,24.62,0,0,0,5.74,2.73,24.18,24.18,0,0,0,8,1.21,20.05,20.05,0,0,0,7.4-1.39,13.38,13.38,0,0,0,5.82-4.34,11.84,11.84,0,0,0,2.29-7.44,10.13,10.13,0,0,0-2.07-6.59A16.74,16.74,0,0,0,831.52,1192.48Z"/><path class="cls-2" d="M887.89,1211.66a20.31,20.31,0,0,0,.31-2.91c0-.93,0-2,0-3.18l-.09-16.67q-.1-10.31-3.54-15.19c-2.31-3.26-6-4.89-11.25-4.89a17.48,17.48,0,0,0-5.15.81,28.79,28.79,0,0,0-5.11,2.11,22.73,22.73,0,0,0-4.44,3V1147.4h-2.6a6.33,6.33,0,0,1-1.75,1.17,12.66,12.66,0,0,1-3.31.9,40.51,40.51,0,0,1-6.14.35v3.77l3.18-.18,3.18-.18c-.12,1.2-.19,2.23-.22,3.09s0,1.78,0,2.74v42.39c0,2.15-.07,4-.22,5.69a7.26,7.26,0,0,1-1.3,3.85c-.72.93-2,1.39-3.85,1.39v2.69h18.28v-3.68c-1,.06-1.9.11-2.82.14s-1.87.07-2.83.13a26.23,26.23,0,0,0,.36-2.91q.09-1.39.09-3.18v-26.44a14.64,14.64,0,0,1,5.15-3.94,15.87,15.87,0,0,1,6.5-1.62q5.29-.09,7.75,3.77t2.47,11.56v12.55c0,2.15-.06,4-.18,5.69a7,7,0,0,1-1.26,3.85c-.71.93-2,1.39-3.85,1.39v2.69h18.28v-3.68c-.95.06-1.89.11-2.82.14S888.84,1211.6,887.89,1211.66Z"/><path class="cls-2" d="M933.77,1171.83a22,22,0,0,0-11.38-3,20.81,20.81,0,0,0-11.47,3.27,23.13,23.13,0,0,0-8.07,8.92,27.06,27.06,0,0,0-3,12.73,22.86,22.86,0,0,0,3,11.78,21.59,21.59,0,0,0,8.11,8.07,22.57,22.57,0,0,0,11.38,2.91,20.6,20.6,0,0,0,11.47-3.31,23.66,23.66,0,0,0,8.11-9,26.59,26.59,0,0,0,3-12.59,22.3,22.3,0,0,0-3-11.65A22.81,22.81,0,0,0,933.77,1171.83Zm.85,31.41a15.16,15.16,0,0,1-4,7,10.41,10.41,0,0,1-7.53,2.69,10.7,10.7,0,0,1-7.89-3.14,19.19,19.19,0,0,1-4.66-8.11,35.66,35.66,0,0,1-1.52-10.53,29.74,29.74,0,0,1,1.39-9.23,15.7,15.7,0,0,1,4.34-7,10.85,10.85,0,0,1,7.62-2.69,10.09,10.09,0,0,1,6.14,1.88,14.16,14.16,0,0,1,4.17,5.06,27.55,27.55,0,0,1,2.37,7.08,41.17,41.17,0,0,1,.76,7.94A33.18,33.18,0,0,1,934.62,1203.24Z"/><path class="cls-2" d="M988.35,1171.51a18.5,18.5,0,0,0-9.68-2.69,20.21,20.21,0,0,0-7.48,1.48,21.28,21.28,0,0,0-6.41,3.9c-.06-1-.12-1.93-.18-2.73s-.12-1.51-.18-2.11h-2.69a7.38,7.38,0,0,1-1.57,1.17,9.91,9.91,0,0,1-2.95.89,36.64,36.64,0,0,1-6,.36v3.76l3.18-.17,3.18-.18a20.54,20.54,0,0,0-.31,3c0,1,0,1.92,0,2.87l-.18,43.29c0,2.15-.06,4-.18,5.69a7.06,7.06,0,0,1-1.25,3.85c-.72.93-2,1.39-3.86,1.39v2.69h18.29v-3.67c-1,0-1.9.1-2.83.13s-1.86.08-2.82.13a20.31,20.31,0,0,0,.31-2.91c0-.93,0-2,0-3.18v-14.88a19.93,19.93,0,0,0,5,2.2,20.73,20.73,0,0,0,5.78.76,21.26,21.26,0,0,0,11.3-3.18,23.72,23.72,0,0,0,8.38-8.92,27.07,27.07,0,0,0,3.18-13.35,24,24,0,0,0-2.78-11.88A20.16,20.16,0,0,0,988.35,1171.51Zm-.85,31.5a16.78,16.78,0,0,1-4.75,7.26,11,11,0,0,1-7.4,2.65,17.25,17.25,0,0,1-5.6-.9,17,17,0,0,1-4.88-2.6q0-8.51,0-14.07t.05-8.83v-4.93c0-1.1,0-1.88-.05-2.33s0-.79,0-1a17,17,0,0,1,4.7-3.54,12.59,12.59,0,0,1,5.87-1.48,11.25,11.25,0,0,1,7.94,2.78,16.28,16.28,0,0,1,4.39,7.22,33,33,0,0,1-.27,19.8Z"/></g></g></svg>